<svg id="Layer_1" data-name="Layer 1" xmlns="http://www.w3.org/2000/svg" viewBox="0 0 100 100" style="fill: #FFF;">
    <title>jdb THB icon</title>
    <path d="M86.71,15H80.53l-0.11-.48a9.61,9.61,0,0,0-4-6.36,9.81,9.81,0,0,0-7.38-1.72L52.39,9.08l-39,5.62A9.94,9.94,0,0,0,5.09,26l9.3,59.19a9.9,9.9,0,0,0,11.34,8.27l13.59-2.13a9.68,9.68,0,0,0,1.67.15,10,10,0,0,0,1.56-.12l1.23-.21a8.26,8.26,0,0,0,3.55.81H86.71A8.27,8.27,0,0,0,95,83.71V23.79C95,19.19,91.31,15,86.71,15ZM25.23,90.35a6.72,6.72,0,0,1-7.68-5.6L8.25,25.56a6.73,6.73,0,0,1,5.58-7.68l10-1.43a9.88,9.88,0,0,0-1.88,7.5l9.3,59.19a9.83,9.83,0,0,0,3.11,5.78ZM39,23.79V83.71A8.22,8.22,0,0,0,40.22,88l-0.83.13a6.72,6.72,0,0,1-5-5.48l-9.3-59.19a6.73,6.73,0,0,1,5.6-7.68L69.57,9.65a6.66,6.66,0,0,1,5,1.21A6.19,6.19,0,0,1,77.25,15l0,0h-30C42.72,15,39,19.2,39,23.79ZM49.78,30l-0.86-3h-3l-0.81,3H43.33l3-10h2.2l3.08,10H49.78ZM69.23,67.54a4.35,4.35,0,0,1-5.25,0C51.4,57,52.32,47.12,52.32,47.12A8,8,0,0,1,67,42.61a8,8,0,0,1,14.7,4.51S81.91,57,69.23,67.54ZM87.62,87h-2.2l-3.08-9h1.87l0.86,2h3l0.81-2h1.78Z"/>
    <path d="M86.09,84.28A6.74,6.74,0,0,1,86.57,86h0A8.14,8.14,0,0,1,87,84.28L87.78,82H85.35Z"/>
    <path d="M47.42,22h0a7.81,7.81,0,0,0-.45,1.72L46.21,26h2.43L47.9,23.72A9,9,0,0,0,47.42,22Z"/>
</svg>