<svg xmlns="http://www.w3.org/2000/svg" version="1.0" width="40" height="40" preserveAspectRatio="xMidYMid meet" style=""><rect id="backgroundrect" width="100%" height="100%" x="0" y="0" fill="none" stroke="none" class="" style=""/>
<metadata>
Created by potrace 1.15, written by Peter Selinger 2001-2017
</metadata>

<g class="currentLayer" style=""><title>Layer 1</title><g transform="translate(0,626) scale(0.10000000149011612,-0.10000000149011612) " fill="#ffffff" stroke="none" id="svg_1" class="selected" fill-opacity="1">
<path d="M76.57702221370624,6232.788934631725 c-21.02623065432762,-4.16717746030269 -39.48010330307263,-20.058014175590255 -46.07876079565414,-39.83821652049366 c-3.2993287462907723,-9.77897644017697 -3.13156626766582,-2.278057011632136 -3.13156626766582,-133.2385539974111 c0,-129.1269389032458 -0.11184165241664064,-123.07064099427264 2.740120484207591,-132.23843140693847 c2.572358005582637,-8.223230188330627 8.779569714705948,-18.05776899464497 15.545989685912446,-24.558565832717157 c8.83549054091427,-8.556604385154845 20.187418261202858,-14.335090463441228 32.26631672219959,-16.502022742798633 c2.236833048332727,-0.3889365629615913 23.48674700749362,-0.6111860275110618 63.91750435610769,-0.6111860275110618 l60.56225478360855,0 l0,65.56359204209554 l0,65.56359204209554 l-21.36175561157753,0.11112473227474196 l-21.417676437785865,0.16668709841211274 l0,28.892430391431947 l0,28.892430391431947 l21.417676437785865,0.16668709841211274 l21.36175561157753,0.11112473227474196 l0,14.057278632754395 c0,15.112963589364407 0.5592082620831919,20.613637836963935 3.075645441457499,29.781428249629847 c1.4539414814162737,5.2784247830500695 1.677624786249549,5.8896108105611304 5.144716011165274,13.390530239105964 c4.5855077490820895,9.94566353858908 14.59533564037103,21.947134624260798 23.374905355076994,28.058994899371406 c5.983528404290041,4.111615094165317 13.98020655207954,7.834293625369043 20.467022392244445,9.556726975627484 l5.8157659256650955,1.4446215195715981 l27.568967320700846,0.22224946454948294 l27.51304649449254,0.22224946454948294 l0,-28.836868025294557 c0,-25.836500253876647 -0.11184165241664064,-28.947992757569303 -0.8947332193330945,-29.225804588256167 c-0.5032874358748687,-0.16668709841211274 -11.575611025121855,-0.333374196824221 -24.661084357868315,-0.333374196824221 l-23.822271964743532,0 l-2.292753874541046,-1.3334967872968646 c-1.4539414814162737,-0.8889978581979093 -2.9638037890408655,-2.5003064761816103 -4.24998279183218,-4.5561140232642705 l-1.9572289172911392,-3.2226172359674132 l-0.16776247862495924,-14.612902294128084 l-0.16776247862495924,-14.612902294128084 l29.078829628325447,0 l29.13475045453376,0 l-0.11184165241664064,-29.003555123706683 l-0.16776247862495924,-29.05911748984403 l-28.91106714970049,-0.16668709841211274 l-28.9669879759088,-0.11112473227474196 l0,-65.56359204209554 l0,-65.56359204209554 l33.16104994153263,0 c21.02623065432762,0 34.39130811811568,0.22224946454948294 36.51629951403175,0.6111860275110618 c25.38805509857644,4.5005516571268975 45.40771088115431,24.391878734305063 49.93729780402814,49.61719296067061 c0.8388123931247788,4.611676389401633 0.8388123931247788,242.75197765416567 0,247.36365404356727 c-3.9144578345822727,21.61376042743658 -19.963734956369592,40.39384018186735 -40.318915696197394,47.11688648448899 c-9.842065412663997,3.2781796021047804 -2.180912222124414,3.111492503692674 -134.6573495096301,3.0559301375553036 c-97.24631677626526,-0.05556236613737125 -122.3547677438001,-0.16668709841211274 -125.2626507066327,-0.7778731259231737 z" id="svg_2" fill="#ffffff" fill-opacity="1"/>
</g></g></svg>