<svg id="Layer_1" data-name="Layer 1" xmlns="http://www.w3.org/2000/svg" viewBox="0 0 100 100" width="40" style="fill: #FFF;">
    <defs>
        <style>.cls-1{fill-rule:evenodd;}</style>
    </defs>
    <title>jdb THB icon</title>
    <rect x="40.88" y="38.99" width="3.46" height="15.62" rx="1.66" ry="1.66"/>
    <path class="cls-1"
          d="M31.61,39a1.66,1.66,0,0,1,1.66,1.66v10.5h4.62a1.66,1.66,0,0,1,1.66,1.66v0.14a1.66,1.66,0,0,1-1.66,1.66H31.47a1.66,1.66,0,0,1-1.66-1.66V40.65A1.66,1.66,0,0,1,31.47,39h0.14Z"/>
    <path class="cls-1"
          d="M48.46,39a1.66,1.66,0,0,1,1.44.84l6,8V40.65A1.66,1.66,0,0,1,57.56,39h0.14a1.66,1.66,0,0,1,1.66,1.66v12.3a1.65,1.65,0,0,1-.48,1.16h0a1.17,1.17,0,0,1-.4.3,1.64,1.64,0,0,1-.77.19H57.56a1.64,1.64,0,0,1-.63-0.12A1.39,1.39,0,0,1,56.28,54h0l-0.12-.17-6-8.25v7.35a1.66,1.66,0,0,1-1.66,1.66H48.32a1.66,1.66,0,0,1-1.66-1.66V40.65A1.66,1.66,0,0,1,48.32,39h0.14Z"/>
    <path class="cls-1"
          d="M69.55,39a1.66,1.66,0,0,1,1.66,1.66v0.14a1.66,1.66,0,0,1-1.66,1.66H64.93V45.1h4.62a1.66,1.66,0,0,1,1.66,1.66V46.9a1.66,1.66,0,0,1-1.66,1.66H64.93v2.63h4.62a1.66,1.66,0,0,1,1.66,1.66V53a1.66,1.66,0,0,1-1.66,1.66H63.13A1.66,1.66,0,0,1,61.48,53V40.68A1.66,1.66,0,0,1,63.13,39h6.41Z"/>
    <path class="cls-1"
          d="M94,24.74A17.74,17.74,0,0,0,76.26,7H24.74A17.74,17.74,0,0,0,7,24.74V76.26A17.74,17.74,0,0,0,24.74,94H76.26A17.74,17.74,0,0,0,94,76.26V24.74ZM77,59.87a6.57,6.57,0,0,1-.59.74l0,0a27.54,27.54,0,0,1-3.46,3.45c-8.79,8.13-23.27,17.8-25.18,16.31-1.66-1.3,2.73-7.42-2.34-8.48a9.2,9.2,0,0,0-1.06.09H44V71.78C29,69.66,18,59.13,18,46.6c0-14.06,14.32-25.52,31.88-25.52S81.67,32.45,81.67,46.51A21.64,21.64,0,0,1,77,59.87Z"/>
</svg>