<?xml version="1.0" encoding="UTF-8" standalone="no"?>
<!DOCTYPE svg PUBLIC "-//W3C//DTD SVG 1.1//EN" "http://www.w3.org/Graphics/SVG/1.1/DTD/svg11.dtd">
<svg width="100%" height="100%" viewBox="0 0 30 29" version="1.1" xmlns="http://www.w3.org/2000/svg" xmlns:xlink="http://www.w3.org/1999/xlink" xml:space="preserve" xmlns:serif="http://www.serif.com/" style="fill-rule:evenodd;clip-rule:evenodd;stroke-linejoin:round;stroke-miterlimit:1.41421;">
    <g transform="matrix(1,0,0,1,375,-544)">
        <g transform="matrix(0.0594014,0,0,0.0594014,-389.514,542.511)">
            <path d="M729.6,128L652.774,128C660.838,117.299 665.6,103.987 665.6,89.6C665.6,54.323 636.877,25.6 601.6,25.6C566.016,25.6 536.166,53.786 521.549,70.605C513.029,80.345 505.54,90.94 499.2,102.221C492.854,90.944 485.365,80.349 476.851,70.605C462.234,53.811 432.384,25.6 396.8,25.6C361.707,25.642 332.842,54.507 332.8,89.6C332.8,103.987 337.587,117.299 345.626,128L268.8,128C261.778,128 256,133.778 256,140.8L256,217.6C256,224.622 261.778,230.4 268.8,230.4L281.6,230.4L281.6,473.6C281.6,494.771 298.829,512 320,512L678.4,512C699.571,512 716.8,494.771 716.8,473.6L716.8,230.4L729.6,230.4C736.622,230.4 742.4,224.622 742.4,217.6L742.4,140.8C742.4,133.778 736.622,128 729.6,128ZM540.851,87.398C560.87,64.384 583.014,51.2 601.6,51.2C622.771,51.2 640,68.429 640,89.6C640,110.771 622.771,128 601.6,128L515.123,128C519.552,116.685 528.512,101.581 540.851,87.398ZM537.6,486.4L460.8,486.4L460.8,153.6L537.6,153.6L537.6,486.4ZM358.4,89.6C358.4,68.429 375.629,51.2 396.8,51.2C415.386,51.2 437.53,64.384 457.549,87.398C469.888,101.581 478.848,116.685 483.277,128L396.8,128C375.629,128 358.4,110.771 358.4,89.6ZM281.6,153.6L435.2,153.6L435.2,204.8L281.6,204.8L281.6,153.6ZM716.8,204.8L563.2,204.8L563.2,153.6L716.8,153.6L716.8,204.8Z" style="fill:white;fill-rule:nonzero;"/>
        </g>
    </g>
</svg>
