<?xml version="1.0" encoding="UTF-8" standalone="no"?><!DOCTYPE svg PUBLIC "-//W3C//DTD SVG 1.1//EN" "http://www.w3.org/Graphics/SVG/1.1/DTD/svg11.dtd"><svg width="100%" height="100%" viewBox="0 0 172 172" version="1.1" xmlns="http://www.w3.org/2000/svg" xmlns:xlink="http://www.w3.org/1999/xlink" xml:space="preserve" xmlns:serif="http://www.serif.com/" style="fill-rule:evenodd;clip-rule:evenodd;stroke-linejoin:round;stroke-miterlimit:2;"><rect id="reload" x="0" y="0" width="171.419" height="171.419" style="fill:none;"/><clipPath id="_clip1"><rect x="0" y="0" width="171.419" height="171.419"/></clipPath><g clip-path="url(#_clip1)"><circle cx="85.728" cy="86.032" r="85.709" style="fill:#c60200;"/><path d="M33.036,90.809c-0.833,-7.221 -0.139,-14.192 1.749,-20.635c6.277,-21.412 25.968,-37.159 49.324,-37.437l0,-13.997c0,-0.778 0.972,-1.195 1.611,-0.723l28.8,21.163c0.472,0.361 0.472,1.083 0,1.416l-28.772,21.163c-0.667,0.472 -1.611,0.056 -1.611,-0.722l0,-13.97c-15.358,0.25 -28.467,9.721 -34.105,23.107c-2.138,5.055 -3.221,10.637 -2.916,16.497c0.417,8.054 3.444,15.469 8.221,21.468c2.555,3.194 1.944,7.86 -1.361,10.276c-3.138,2.305 -7.526,1.666 -9.942,-1.389c-5.916,-7.387 -9.86,-16.386 -10.998,-26.217Zm83.15,-26.884c4.805,5.971 7.832,13.414 8.221,21.468c0.306,5.888 -0.805,11.47 -2.916,16.497c-5.638,13.386 -18.746,22.885 -34.105,23.107l0,-13.97c0,-0.777 -0.972,-1.194 -1.61,-0.722l-28.8,21.163c-0.473,0.361 -0.473,1.083 0,1.416l28.772,21.163c0.666,0.472 1.611,0.055 1.611,-0.722l0,-13.998c23.356,-0.25 43.075,-15.997 49.323,-37.437c1.889,-6.443 2.556,-13.414 1.75,-20.635c-1.111,-9.831 -5.054,-18.829 -10.97,-26.217c-2.444,-3.055 -6.804,-3.694 -9.943,-1.389c-3.277,2.417 -3.888,7.082 -1.333,10.276Z" style="fill:#fff;fill-rule:nonzero;"/></g></svg>