<?xml version="1.0" encoding="UTF-8" standalone="no"?><!DOCTYPE svg PUBLIC "-//W3C//DTD SVG 1.1//EN" "http://www.w3.org/Graphics/SVG/1.1/DTD/svg11.dtd"><svg width="100%" height="100%" viewBox="0 0 226 200" version="1.1" xmlns="http://www.w3.org/2000/svg" xmlns:xlink="http://www.w3.org/1999/xlink" xml:space="preserve" xmlns:serif="http://www.serif.com/" style="fill-rule:evenodd;clip-rule:evenodd;stroke-linejoin:round;stroke-miterlimit:2;"><path d="M225.025,90.376c0,-49.647 -50.385,-89.955 -112.444,-89.955c-62.06,0 -112.444,40.308 -112.444,89.955c0,29.34 17.885,56.837 47.921,73.672l-1.136,35.157l36.524,-21.945c9.502,2.039 19.297,3.072 29.135,3.072c62.059,0 112.444,-40.308 112.444,-89.956Zm-169.973,19.182l3.47,-3.159c0.649,-0.517 1.471,-1.123 2.466,-1.818c0.994,-0.696 2.343,-1.56 4.048,-2.593c5.803,-3.735 9.456,-6.338 10.958,-7.808c3.165,-3.219 4.748,-7.233 4.748,-12.041c0,-5.722 -2.09,-10.212 -6.27,-13.471c-3.815,-2.901 -8.624,-4.351 -14.428,-4.351c-6.94,0 -12.338,2.116 -16.193,6.348c-3.856,4.232 -5.784,9.885 -5.784,16.958l12.724,0c0,-3.418 0.72,-6.169 2.161,-8.255c1.441,-2.087 3.845,-3.13 7.214,-3.13c1.096,0 2.059,0.169 2.891,0.507c0.832,0.338 1.573,0.824 2.222,1.46c1.34,1.272 2.009,2.981 2.009,5.126c0,0.914 -0.162,1.769 -0.487,2.563c-0.324,0.795 -0.791,1.53 -1.4,2.206c-1.217,1.43 -3.003,2.94 -5.357,4.53l-7.123,4.53c-1.136,0.795 -2.252,1.57 -3.348,2.325c-1.948,1.351 -3.328,2.364 -4.139,3.039c-2.841,2.424 -5.002,5.286 -6.484,8.584c-1.481,3.298 -2.222,6.656 -2.222,10.073l44.623,0l0,-11.623l-26.299,0Zm69.4,-12.398l0,-32.128l-13.089,0l-24.899,30.876l0,12.816l24.412,0l0,12.457l13.576,0l0,-12.457l7.244,0l0,-11.564l-7.244,0Zm63.981,24.021l0,-57.52l-14.976,0l0,20.922l-19.419,0l0,-20.922l-14.854,0l0,57.52l14.854,0l0,-23.663l19.419,0l0,23.663l14.976,0Zm-77.192,-24.021l0,-18.24l-14.062,18.24l14.062,0Z" style="fill:#fff;"/></svg>