<?xml version="1.0" encoding="UTF-8" standalone="no"?><!DOCTYPE svg PUBLIC "-//W3C//DTD SVG 1.1//EN" "http://www.w3.org/Graphics/SVG/1.1/DTD/svg11.dtd"><svg width="100%" height="100%" viewBox="0 0 151 151" version="1.1" xmlns="http://www.w3.org/2000/svg" xmlns:xlink="http://www.w3.org/1999/xlink" xml:space="preserve" xmlns:serif="http://www.serif.com/" style="fill-rule:evenodd;clip-rule:evenodd;stroke-linejoin:round;stroke-miterlimit:1.41421;"><path d="M47.18,5.784c-9.327,3.782 -17.697,9.342 -24.873,16.517c-7.179,7.177 -12.733,15.548 -16.517,24.873c-3.653,9.009 -5.506,18.53 -5.506,28.296c0,9.763 1.853,19.284 5.506,28.289c3.784,9.327 9.34,17.698 16.517,24.873c7.176,7.179 15.544,12.735 24.873,16.516c9.009,3.657 18.528,5.504 28.293,5.504c9.766,0 19.282,-1.853 28.292,-5.504c9.325,-3.781 17.698,-9.337 24.873,-16.516c7.179,-7.175 12.735,-15.542 16.516,-24.873c3.653,-9.005 5.502,-18.526 5.502,-28.289c0,-9.766 -1.851,-19.287 -5.502,-28.296c-3.781,-9.325 -9.342,-17.699 -16.516,-24.873c-7.175,-7.175 -15.54,-12.735 -24.873,-16.517c-9.01,-3.65 -18.526,-5.502 -28.292,-5.502c-9.765,0 -19.284,1.852 -28.293,5.502Zm-28.104,101.337c-3.622,-2.274 -6.959,-4.892 -9.913,-7.975c-4.513,-12.699 -5.278,-26.448 -2.288,-39.499c1.407,-2.774 3.006,-5.437 4.816,-7.989c0.559,-0.787 1.076,-1.608 1.675,-2.373l16.967,10.04c0,0.133 0,0.278 0,0.426c-0.043,9.126 0.883,18.185 2.728,27.113c0.007,0.042 0.013,0.065 0.021,0.102l-13.159,20.632c-0.286,-0.145 -0.571,-0.303 -0.847,-0.477Zm50.449,34.88c2.927,1.493 5.938,2.755 9.032,3.781c-13.142,0.571 -26.415,-2.508 -38.149,-9.24l28.443,5.068c0.218,0.139 0.441,0.272 0.674,0.391Zm-0.104,-5.135l-33.565,-5.982c-3.927,-4.768 -7.459,-9.813 -10.495,-15.205c-0.773,-1.371 -1.635,-2.703 -2.29,-4.135l13.146,-20.612c0.291,0.073 0.616,0.15 0.983,0.248c8.224,2.2 16.594,3.765 25.021,4.991c0.493,0.068 0.904,0.128 1.255,0.166l15.758,27.246c-2.734,3.844 -5.5,7.667 -8.326,11.449c-0.469,0.629 -0.968,1.234 -1.487,1.834Zm55.842,-11.606c-2.672,2.674 -5.508,5.084 -8.477,7.233c-0.492,-3.936 -1.342,-7.792 -2.541,-11.559l16.813,-31.367c4.632,-2.109 9.099,-4.5 13.246,-7.465c0.543,-0.385 0.994,-0.815 1.343,-1.284c-1.218,16.209 -8.012,32.073 -20.384,44.442Zm-0.745,-40.679c0.625,1.192 1.242,2.397 1.861,3.619l-16.24,30.294c-0.093,0.021 -0.183,0.042 -0.276,0.054c-8.779,1.64 -17.628,2.512 -26.552,2.554l-16.207,-28.023c2.522,-4.684 5.022,-9.386 7.501,-14.09c1.683,-3.191 3.337,-6.403 4.989,-9.614l33.541,-3.445c4.108,6.026 8,12.18 11.383,18.651Zm-6.805,-35.934c-1.592,4.204 -3.296,8.363 -4.989,12.531l-32.675,3.356c-0.391,-0.515 -0.796,-1.022 -1.222,-1.506c-3.859,-4.37 -7.742,-8.712 -11.619,-13.068c0.035,-0.043 0.07,-0.076 0.106,-0.116c-1.565,-1.562 -3.134,-3.125 -4.698,-4.692l9.096,-27.387c0.628,-0.166 1.26,-0.305 1.897,-0.374c4.946,-0.503 9.897,-1.072 14.855,-1.359c3.035,-0.17 6.088,-0.268 9.175,-0.05l22.507,25.368c-0.775,2.448 -1.531,4.902 -2.433,7.297Zm7.55,-22.972c6.209,6.213 11.017,13.302 14.416,20.876c-4.205,-2.895 -8.702,-5.276 -13.429,-7.216c-0.735,-0.304 -1.489,-0.572 -2.256,-0.836l-22.154,-24.969c0.154,-1.078 0.235,-2.158 0.269,-3.247c8.427,3.43 16.327,8.567 23.154,15.392Zm-72.34,-16.703c0.087,0.064 0.129,0.118 0.179,0.133c5.063,1.749 9.67,4.326 14.012,7.382l-8.498,25.592c-0.044,0.013 -0.085,0.025 -0.127,0.044c-1.739,0.719 -3.511,1.363 -5.223,2.142c-7.054,3.206 -13.932,6.757 -20.41,11.015l-16.77,-9.922c0.025,-0.523 0.114,-1.055 0.293,-1.529c1.126,-3 2.233,-6.017 3.507,-8.958c0.981,-2.264 2.099,-4.452 3.318,-6.59c0.798,-0.881 1.625,-1.754 2.477,-2.606c7.964,-7.962 17.377,-13.616 27.398,-16.959c-0.052,0.081 -0.106,0.166 -0.156,0.256Z" style="fill:#fff;fill-rule:nonzero;"/></svg>