<svg width="100%" height="100%" viewBox="0 0 122 142" fill="none" xmlns="http://www.w3.org/2000/svg">
<path d="M106.759 30.7637C105.809 30.2731 104.885 29.7353 103.99 29.1523C101.386 27.431 98.9991 25.4028 96.8797 23.1113C91.577 17.0439 89.5965 10.8887 88.867 6.5791H88.8963C88.2869 3.00195 88.5389 0.6875 88.577 0.6875H64.4246V94.0801C64.4246 95.334 64.4246 96.5732 64.3719 97.7979C64.3719 97.9502 64.3573 98.0908 64.3485 98.2549C64.3485 98.3223 64.3485 98.3926 64.3338 98.4629V98.5156C64.0792 101.867 63.0051 105.104 61.2058 107.942C59.4066 110.78 56.9374 113.133 54.0155 114.793C50.9702 116.525 47.5259 117.434 44.0223 117.43C32.7694 117.43 23.6493 108.254 23.6493 96.9219C23.6493 85.5898 32.7694 76.4141 44.0223 76.4141C46.1524 76.4121 48.2694 76.7473 50.2948 77.4072L50.3241 52.8154C44.1757 52.0212 37.9295 52.5099 31.9794 54.2505C26.0294 55.9911 20.5046 58.946 15.7537 62.9287C11.5909 66.5457 8.09109 70.8614 5.41195 75.6816C4.39242 77.4395 0.545738 84.5029 0.0799176 95.9668C-0.213051 102.474 1.74105 109.215 2.67269 112.001V112.06C3.25863 113.7 5.52914 119.299 9.22933 124.019C12.213 127.804 15.7382 131.13 19.6912 133.889V133.83L19.7498 133.889C31.4422 141.834 44.4061 141.312 44.4061 141.312C46.6502 141.222 54.1678 141.313 62.7049 137.267C72.1737 132.781 77.5643 126.099 77.5643 126.099C81.0081 122.106 83.7465 117.555 85.6619 112.643C87.8475 106.897 88.577 100.007 88.577 97.2529V47.7061C88.87 47.8818 92.7723 50.4629 92.7723 50.4629C92.7723 50.4629 98.3944 54.0664 107.166 56.4131C113.459 58.083 121.937 58.4346 121.937 58.4346V34.458C118.967 34.7803 112.934 33.8428 106.759 30.7637Z" fill="white"/>
</svg>
